<svg width="318" height="257" viewBox="0 0 318 257" fill="none" xmlns="http://www.w3.org/2000/svg">
<path opacity="0.18" d="M125.681 18.6791C116.568 27.1148 109.815 37.9584 100.132 45.7172C83.7596 58.8614 61.5383 61.4748 42.2845 69.842C29.5486 75.3773 17.4731 84.1472 11.8385 96.833C7.28873 107.115 7.86334 119.235 12.5932 129.393C14.8531 134.264 15.8573 139.621 15.5142 144.979C15.1712 150.336 13.4918 155.522 10.6292 160.065C3.61805 171.161 -0.61008 183.838 0.0717389 196.858C1.12663 216.883 16.3453 236.638 36.3325 238.48C43.1936 239.114 50.0889 237.722 56.8814 236.479C97.9063 228.982 141.328 227.054 180.351 241.736C191.045 245.763 201.341 251.011 212.46 253.659C225.449 256.752 238.991 256.165 252.34 255.561C273.172 254.619 297.478 251.705 308.117 233.78C322.864 208.931 299.373 177.909 302.714 149.221C304.562 133.369 314.566 119.428 316.676 103.624C318.966 86.4436 310.814 68.2825 296.448 58.5657C276.5 45.0745 248.914 48.3477 228.318 35.8591C212.023 25.9752 200.822 6.66167 181.611 1.40486C162.769 -3.74485 139.394 5.99761 125.681 18.6791Z" fill="white"/>
<path opacity="0.11" d="M38.9696 191.323C36.9527 177.478 32.142 164.148 30.1936 150.29C28.2453 136.432 29.6014 121.193 38.4804 110.39C44.2738 103.341 52.5992 98.943 60.74 94.82C67.9797 91.1517 75.4339 87.4964 83.4846 86.501C90.5827 85.643 97.745 86.8657 104.843 87.7152C118.198 89.3112 131.798 89.5214 145.054 87.2475C162.361 84.2443 178.724 77.3798 195.641 72.7333C212.21 68.1598 228.612 65.8302 247.138 74.4495C259.944 80.413 269.394 92.8636 272.458 106.627C277.41 128.864 266.227 153.507 275.629 174.256C278.281 180.099 282.401 185.136 285.766 190.602C289.901 197.341 292.886 204.721 294.597 212.44C295.185 215.095 295.619 217.897 294.868 220.51C292.936 227.203 284.663 229.429 277.702 229.978C254.558 231.806 231.436 227.49 208.352 224.98C170.88 220.913 133.068 221.629 95.5307 224.431C86.3442 225.117 77.1633 225.918 67.9883 226.834C60.5856 227.559 46.5311 231.982 39.5533 229.875C31.7729 227.52 36.8797 222.419 38.5276 215.095C40.2914 207.321 40.1111 199.148 38.9696 191.323Z" fill="#68E1FD"/>
<path d="M165.067 58.2908C165.067 58.2908 161.479 72.9586 156.117 77.051C150.582 81.2742 144.838 73.1593 144.838 73.1593L141.641 78.9706C141.641 78.9706 147.554 88.5688 153.514 88.7914C159.475 89.0139 164.707 83.6476 164.707 83.6476L165.067 58.2908Z" fill="#9358FF"/>
<path d="M134.559 48.8387L135.371 48.4848L151.923 52.6161L156.895 85.5294H156.274L134.559 48.8387Z" fill="#3F3D56"/>
<path d="M279.469 158.54C279.469 158.54 278.247 168.451 270.393 169.425H235.892L230.984 114.402H267.324C270.257 114.402 276.268 117.484 277.468 121.846C277.629 122.654 277.736 123.471 277.788 124.292C278.593 132.756 279.469 158.54 279.469 158.54Z" fill="#9358FF"/>
<path d="M61.5652 119.527L58.3823 118.149C57.9681 117.97 57.6286 117.654 57.421 117.255C57.2134 116.856 57.1503 116.398 57.2425 115.958C57.3347 115.519 57.5764 115.124 57.927 114.84C58.2776 114.557 58.7156 114.403 59.1673 114.403H231.452C233.581 114.383 235.686 114.841 237.612 115.742C239.537 116.643 241.234 117.965 242.575 119.608C243.694 120.957 244.434 122.576 244.72 124.301C245.497 129.45 245.021 151.878 244.806 160.299C244.69 164.872 241.301 168.832 236.737 169.378L236.248 169.425H69.381L61.5652 119.527Z" fill="#68E1FD"/>
<path d="M61.5652 119.527L58.3823 118.149C57.9681 117.97 57.6286 117.654 57.421 117.255C57.2134 116.856 57.1503 116.398 57.2425 115.958C57.3347 115.519 57.5764 115.124 57.927 114.84C58.2776 114.557 58.7156 114.403 59.1673 114.403H231.452C233.581 114.383 235.686 114.841 237.612 115.742C239.537 116.643 241.234 117.965 242.575 119.608C243.694 120.957 244.434 122.576 244.72 124.301C245.497 129.45 245.021 151.878 244.806 160.299C244.69 164.872 241.301 168.832 236.737 169.378L236.248 169.425H69.381L61.5652 119.527Z" fill="#68E1FD"/>
<path d="M244.814 160.296C244.698 164.871 241.31 168.831 236.746 169.378L236.257 169.425H69.3935L61.5651 119.529L58.3823 118.15C57.9681 117.971 57.6286 117.655 57.421 117.256C57.2134 116.857 57.1503 116.399 57.2425 115.959C57.3347 115.519 57.5764 115.124 57.927 114.841C58.2775 114.557 58.7156 114.403 59.1673 114.403H231.448C233.576 114.383 235.681 114.841 237.607 115.743C239.533 116.644 241.229 117.966 242.571 119.61C243.689 120.959 244.429 122.579 244.715 124.305C245.492 129.435 245.029 151.871 244.814 160.296Z" fill="url(#paint0_linear)"/>
<path opacity="0.61" d="M53.0629 169.425H236.757C237.392 169.425 238.002 169.167 238.451 168.707C238.901 168.248 239.154 167.625 239.156 166.975C239.156 166.653 239.093 166.334 238.973 166.036C238.852 165.739 238.676 165.468 238.453 165.24C238.23 165.012 237.966 164.832 237.675 164.708C237.384 164.585 237.072 164.522 236.757 164.522H53.0629C52.4266 164.522 51.8164 164.78 51.3665 165.24C50.9166 165.7 50.6639 166.325 50.6639 166.975C50.665 167.625 50.9183 168.248 51.368 168.707C51.8178 169.167 52.4274 169.425 53.0629 169.425Z" fill="url(#paint1_linear)"/>
<path d="M53.0629 169.425H236.757C237.392 169.425 238.002 169.167 238.451 168.707C238.901 168.248 239.154 167.625 239.156 166.975C239.156 166.653 239.093 166.334 238.973 166.036C238.852 165.739 238.676 165.468 238.453 165.24C238.23 165.012 237.966 164.832 237.675 164.708C237.384 164.585 237.072 164.522 236.757 164.522H53.0629C52.4266 164.522 51.8164 164.78 51.3665 165.24C50.9166 165.7 50.6639 166.325 50.6639 166.975C50.665 167.625 50.9183 168.248 51.368 168.707C51.8178 169.167 52.4274 169.425 53.0629 169.425Z" fill="#9358FF"/>
<path d="M274.566 185.231V215.165C274.566 219.07 273.013 222.815 270.249 225.577C267.484 228.339 263.735 229.892 259.824 229.894H65.9543C64.0206 229.897 62.1054 229.52 60.3179 228.783C58.5304 228.047 56.9057 226.966 55.5364 225.603C54.1671 224.239 53.0802 222.62 52.3376 220.837C51.5951 219.054 51.2114 217.143 51.2086 215.212V185.231C51.2051 182.51 51.962 179.842 53.3941 177.528C53.7068 177.015 54.0533 176.523 54.4312 176.056C55.8103 174.326 57.5629 172.929 59.5581 171.969C61.5533 171.01 63.7397 170.512 65.9543 170.514H259.82C263.73 170.516 267.48 172.069 270.244 174.83C273.009 177.591 274.563 181.335 274.566 185.239V185.231Z" fill="#9358FF"/>
<path d="M198.842 229.894H65.7162C62.8912 229.897 60.1247 229.128 57.746 227.68C55.3673 226.231 53.4764 224.164 52.2982 221.723H190.374C190.374 221.723 192.363 228.648 198.842 229.894Z" fill="url(#paint2_linear)"/>
<path d="M198.842 170.514C192.732 171.534 191.025 177.596 191.025 177.596H53.3878L54.4232 176.11C55.8003 174.363 57.5501 172.952 59.5423 171.983C61.5344 171.014 63.7175 170.512 65.9286 170.514H198.842Z" fill="url(#paint3_linear)"/>
<path d="M274.566 185.262V215.312C274.568 217.957 273.861 220.554 272.517 222.831C271.174 225.109 269.244 226.984 266.929 228.26H205.94C204.722 228.261 203.516 228.021 202.391 227.555C201.266 227.09 200.243 226.407 199.382 225.545C198.521 224.684 197.837 223.661 197.371 222.536C196.904 221.41 196.664 220.204 196.663 218.985V182.521C196.663 181.302 196.902 180.095 197.368 178.968C197.834 177.842 198.518 176.818 199.379 175.956C200.241 175.094 201.263 174.41 202.389 173.943C203.515 173.477 204.721 173.237 205.94 173.238H268.397C270.308 174.606 271.864 176.411 272.937 178.502C274.01 180.594 274.568 182.911 274.566 185.262Z" fill="url(#paint4_linear)"/>
<path d="M274.566 185.267V215.296C274.566 215.849 274.536 216.402 274.476 216.953C274.451 217.193 274.417 217.429 274.378 217.665C274.22 218.694 273.948 219.702 273.569 220.67C273.479 220.915 273.381 221.151 273.27 221.387C272.793 222.456 272.192 223.465 271.48 224.392C271.293 224.633 271.097 224.873 270.888 225.105C269.775 226.374 268.455 227.441 266.984 228.26H215.13C213.82 228.262 212.525 227.982 211.332 227.438C210.139 226.893 209.075 226.098 208.213 225.105C208.013 224.878 207.825 224.64 207.65 224.392C206.999 223.487 206.521 222.468 206.24 221.387C206.176 221.155 206.125 220.915 206.082 220.67C205.976 220.111 205.923 219.544 205.924 218.975V182.528C205.924 181.878 205.993 181.231 206.129 180.596C206.172 180.355 206.23 180.117 206.304 179.883C206.62 178.796 207.134 177.776 207.821 176.878C208.008 176.63 208.209 176.392 208.422 176.166C209.28 175.24 210.319 174.502 211.473 173.998C212.627 173.494 213.872 173.236 215.13 173.238H268.441C269.583 174.062 270.601 175.048 271.463 176.166C271.642 176.398 271.817 176.634 271.983 176.878C272.626 177.813 273.155 178.822 273.56 179.883C273.654 180.12 273.743 180.36 273.816 180.596C274.144 181.57 274.365 182.578 274.472 183.601C274.502 183.837 274.523 184.078 274.536 184.318C274.549 184.558 274.566 184.97 274.566 185.267Z" fill="#68E1FD"/>
<path d="M274.566 185.267V215.296C274.566 215.849 274.536 216.402 274.476 216.953C274.451 217.193 274.417 217.429 274.378 217.665C274.22 218.694 273.948 219.702 273.569 220.67C273.479 220.915 273.381 221.151 273.27 221.387C272.793 222.456 272.192 223.465 271.48 224.392C271.293 224.633 271.097 224.873 270.888 225.105C269.775 226.374 268.455 227.441 266.984 228.26H215.13C213.82 228.262 212.525 227.982 211.332 227.438C210.139 226.893 209.075 226.098 208.213 225.105C208.013 224.878 207.825 224.64 207.65 224.392C206.999 223.487 206.521 222.468 206.24 221.387C206.176 221.155 206.125 220.915 206.082 220.67C205.976 220.111 205.923 219.544 205.924 218.975V182.528C205.924 181.878 205.993 181.231 206.129 180.596C206.172 180.355 206.23 180.117 206.304 179.883C206.62 178.796 207.134 177.776 207.821 176.878C208.008 176.63 208.209 176.392 208.422 176.166C209.28 175.24 210.319 174.502 211.473 173.998C212.627 173.494 213.872 173.236 215.13 173.238H268.441C269.583 174.062 270.601 175.048 271.463 176.166C271.642 176.398 271.817 176.634 271.983 176.878C272.626 177.813 273.155 178.822 273.56 179.883C273.654 180.12 273.743 180.36 273.816 180.596C274.144 181.57 274.365 182.578 274.472 183.601C274.502 183.837 274.523 184.078 274.536 184.318C274.549 184.558 274.566 184.97 274.566 185.267Z" fill="url(#paint5_linear)"/>
<path d="M271.842 177.051H207.014C207.203 176.862 207.406 176.68 207.621 176.507H271.312C271.493 176.684 271.674 176.864 271.842 177.051Z" fill="white"/>
<path d="M274.021 180.32H205.924C205.968 180.136 206.026 179.954 206.1 179.775H273.764C273.858 179.956 273.948 180.14 274.021 180.32Z" fill="white"/>
<path d="M274.566 184.678H205.924V183.589H274.502C274.532 183.948 274.553 184.313 274.566 184.678Z" fill="white"/>
<path d="M274.566 187.402H205.924V188.492H274.566V187.402Z" fill="white"/>
<path d="M274.566 190.671H205.924V191.76H274.566V190.671Z" fill="white"/>
<path d="M274.566 194.484H205.924V195.574H274.566V194.484Z" fill="white"/>
<path d="M274.566 198.842H205.924V199.387H274.566V198.842Z" fill="white"/>
<path d="M274.566 202.111H205.924V202.656H274.566V202.111Z" fill="white"/>
<path d="M274.566 205.924H205.924V206.469H274.566V205.924Z" fill="white"/>
<path d="M274.566 209.738H205.924V210.283H274.566V209.738Z" fill="white"/>
<path d="M274.566 216.82C274.54 217.004 274.506 217.184 274.468 217.365H205.924V216.82H274.566Z" fill="white"/>
<path d="M273.476 220.633C273.387 221.005 273.289 221.364 273.178 221.723H206.082C206.018 221.371 205.967 221.005 205.924 220.633H273.476Z" fill="white"/>
<path d="M271.297 224.447C271.108 224.814 270.911 225.182 270.701 225.536H207.581C207.379 225.189 207.19 224.826 207.014 224.447H271.297Z" fill="white"/>
<path d="M189.079 163.655H233.022C231.158 164.588 229.103 165.071 227.02 165.066H63.6295C60.93 165.09 58.2889 164.277 56.067 162.739C55.4377 162.304 54.8531 161.807 54.3221 161.256C54.1506 161.079 53.9834 160.895 53.8248 160.71C53.2267 160.008 52.7169 159.235 52.3072 158.409C52.2172 158.228 52.1314 158.043 52.0542 157.863C51.7361 157.126 51.5059 156.353 51.3683 155.562C51.3383 155.381 51.3083 155.201 51.2869 155.012C51.2355 154.584 51.2098 154.153 51.2097 153.722V130.646C51.2054 130.401 51.214 130.155 51.2354 129.911C51.2611 129.67 51.2654 129.545 51.2869 129.364C51.3826 128.579 51.5682 127.807 51.8399 127.064C51.9085 126.879 51.9814 126.698 52.0585 126.513C52.4064 125.695 52.8558 124.923 53.3961 124.217L53.8248 123.667C54.1414 123.296 54.4808 122.945 54.8409 122.617C57.258 120.456 60.3914 119.275 63.6295 119.306H227.02C229.588 119.302 232.101 120.049 234.253 121.456H189.079C188.391 121.455 187.706 121.539 187.038 121.706C185.668 122.032 184.409 122.721 183.394 123.701C183.213 123.874 183.043 124.058 182.884 124.251C182.31 124.925 181.873 125.705 181.598 126.548C181.538 126.728 181.488 126.912 181.448 127.098C181.333 127.584 181.276 128.082 181.277 128.582V156.564C181.278 156.997 181.322 157.43 181.409 157.854C181.445 158.039 181.49 158.221 181.547 158.4C181.789 159.238 182.194 160.02 182.738 160.701C182.888 160.891 183.047 161.073 183.214 161.247C183.95 162.012 184.836 162.615 185.817 163.019C186.85 163.45 187.96 163.667 189.079 163.655Z" fill="#9358FF"/>
<path d="M239.699 130.764V154.362C239.704 154.496 239.695 154.63 239.673 154.762C239.648 154.892 239.673 155.027 239.639 155.158C239.614 155.276 239.598 155.397 239.592 155.518C239.592 155.636 239.562 155.705 239.545 155.796C239.541 155.844 239.532 155.89 239.519 155.936C239.497 156.062 239.472 156.192 239.441 156.318C239.411 156.444 239.403 156.483 239.377 156.566C239.351 156.648 239.338 156.727 239.313 156.809C239.287 156.892 239.265 156.983 239.24 157.07L239.149 157.335C239.14 157.41 239.116 157.482 239.081 157.548C239.055 157.618 239.012 157.735 238.973 157.826L238.857 158.109C238.839 158.161 238.816 158.212 238.788 158.261C238.761 158.334 238.73 158.405 238.694 158.474C238.668 158.535 238.634 158.596 238.604 158.657C238.574 158.717 238.513 158.843 238.462 158.93C238.41 159.017 238.316 159.213 238.234 159.365L238.101 159.582C237.981 159.782 237.856 159.974 237.723 160.16C237.654 160.26 237.585 160.352 237.517 160.443C237.379 160.63 237.233 160.808 237.087 160.986C236.941 161.165 236.761 161.36 236.585 161.538C236.232 161.902 235.858 162.244 235.463 162.56C235.457 162.572 235.446 162.581 235.433 162.586C235.304 162.69 235.175 162.786 235.042 162.886L234.613 163.186L234.183 163.464C234.046 163.551 233.908 163.629 233.753 163.712L233.259 163.977H189.228C188.106 163.982 186.994 163.759 185.959 163.32C184.979 162.913 184.091 162.306 183.351 161.538C183.183 161.362 183.024 161.178 182.875 160.986C182.33 160.303 181.924 159.517 181.68 158.674C181.623 158.494 181.577 158.311 181.543 158.126C181.456 157.697 181.411 157.26 181.41 156.822V128.648C181.408 128.146 181.466 127.645 181.581 127.157C181.621 126.97 181.671 126.786 181.732 126.605C182.007 125.757 182.445 124.973 183.021 124.297C183.18 124.101 183.35 123.915 183.532 123.74C184.553 122.757 185.813 122.064 187.184 121.732C187.853 121.568 188.54 121.484 189.228 121.484H234.497C234.694 121.615 234.892 121.75 235.081 121.893L235.3 122.058C235.599 122.283 235.886 122.524 236.159 122.78L236.395 123.006L236.567 123.18L236.799 123.423L237.031 123.684L237.079 123.74L237.113 123.784C237.25 123.949 237.388 124.123 237.517 124.297C237.585 124.384 237.65 124.475 237.714 124.562C237.719 124.576 237.728 124.588 237.74 124.597C237.858 124.765 237.969 124.934 238.075 125.105L238.26 125.409C238.372 125.601 238.479 125.801 238.578 125.996C238.625 126.101 238.677 126.196 238.724 126.296C238.771 126.396 238.819 126.505 238.857 126.605C238.896 126.705 238.939 126.787 238.973 126.883C239.008 126.979 239.046 127.066 239.076 127.157L239.171 127.431C239.301 127.807 239.406 128.192 239.484 128.582C239.499 128.632 239.509 128.683 239.514 128.735C239.523 128.827 239.541 128.919 239.566 129.008C239.566 129.1 239.613 129.317 239.635 129.469C239.656 129.621 239.678 129.834 239.686 130.021V130.317C239.686 130.434 239.699 130.612 239.699 130.764Z" fill="url(#paint6_linear)"/>
<path d="M185.637 163.317C184.669 163.555 183.672 163.772 182.64 163.975H66.3016C62.8664 164.004 59.4366 163.695 56.0605 163.053C55.432 162.615 54.8483 162.115 54.318 161.56C54.1467 161.383 53.9797 161.197 53.8213 161.011C53.224 160.305 52.7149 159.527 52.3057 158.695C52.2158 158.514 52.1302 158.327 52.0531 158.146C51.7354 157.404 51.5055 156.627 51.3681 155.83C51.3381 155.649 51.3082 155.467 51.2867 155.276C51.2355 154.846 51.2098 154.412 51.2097 153.978V130.756C51.2054 130.509 51.214 130.262 51.2354 130.016C51.2611 129.774 51.2653 129.648 51.2867 129.466C51.3824 128.676 51.5677 127.899 51.839 127.151C51.9076 126.965 51.9803 126.783 52.0574 126.597C52.4048 125.773 52.8536 124.997 53.3932 124.286L53.8213 123.732C54.1375 123.359 54.4764 123.007 54.836 122.676C58.6059 121.855 62.4538 121.455 66.3102 121.486H185.898L186.857 121.737C185.488 122.065 184.232 122.759 183.218 123.745C183.037 123.919 182.867 124.104 182.709 124.299C182.135 124.977 181.699 125.762 181.424 126.61C181.364 126.792 181.314 126.977 181.274 127.164C181.16 127.653 181.102 128.154 181.103 128.657V156.817C181.104 157.253 181.149 157.688 181.236 158.115C181.271 158.301 181.317 158.485 181.373 158.665C181.615 159.508 182.02 160.295 182.563 160.98C182.712 161.171 182.871 161.355 183.038 161.53C183.773 162.301 184.658 162.909 185.637 163.317Z" fill="#68E1FD"/>
<path d="M185.637 163.317C184.669 163.555 183.672 163.772 182.64 163.975H66.3016C62.8664 164.004 59.4366 163.695 56.0605 163.053C55.432 162.615 54.8483 162.115 54.318 161.56C54.1467 161.383 53.9797 161.197 53.8213 161.011C53.224 160.305 52.7149 159.527 52.3057 158.695C52.2158 158.514 52.1302 158.327 52.0531 158.146C51.7354 157.404 51.5055 156.627 51.3681 155.83C51.3381 155.649 51.3082 155.467 51.2867 155.276C51.2355 154.846 51.2098 154.412 51.2097 153.978V130.756C51.2054 130.509 51.214 130.262 51.2354 130.016C51.2611 129.774 51.2653 129.648 51.2867 129.466C51.3824 128.676 51.5677 127.899 51.839 127.151C51.9076 126.965 51.9803 126.783 52.0574 126.597C52.4048 125.773 52.8536 124.997 53.3932 124.286L53.8213 123.732C54.1375 123.359 54.4764 123.007 54.836 122.676C58.6059 121.855 62.4538 121.455 66.3102 121.486H185.898L186.857 121.737C185.488 122.065 184.232 122.759 183.218 123.745C183.037 123.919 182.867 124.104 182.709 124.299C182.135 124.977 181.699 125.762 181.424 126.61C181.364 126.792 181.314 126.977 181.274 127.164C181.16 127.653 181.102 128.154 181.103 128.657V156.817C181.104 157.253 181.149 157.688 181.236 158.115C181.271 158.301 181.317 158.485 181.373 158.665C181.615 159.508 182.02 160.295 182.563 160.98C182.712 161.171 182.871 161.355 183.038 161.53C183.773 162.301 184.658 162.909 185.637 163.317Z" fill="url(#paint7_linear)"/>
<path d="M236.432 165.066C236.096 165.456 235.732 165.821 235.342 166.156C235.729 165.817 236.093 165.453 236.432 165.066Z" fill="url(#paint8_linear)"/>
<path d="M237.521 125.298C237.463 125.171 237.404 125.045 237.342 124.924C237.225 124.682 237.101 124.439 236.976 124.208C237.171 124.561 237.354 124.924 237.521 125.298Z" fill="url(#paint9_linear)"/>
<path d="M239.7 130.768V154.637C239.699 154.806 239.685 154.974 239.657 155.141C239.581 155.857 239.428 156.563 239.2 157.246C239.148 157.415 239.092 157.58 239.028 157.741C237.94 160.47 235.885 162.692 233.262 163.977H181.618C177.634 163.977 174.344 161.263 173.856 157.75C173.826 157.583 173.809 157.415 173.805 157.246C173.789 157.101 173.782 156.956 173.783 156.811V128.651C173.783 124.689 177.293 121.484 181.631 121.484H234.478C237.656 123.554 239.7 126.959 239.7 130.768Z" fill="#9358FF"/>
<path d="M236.976 124.208H182.499C182.658 124.017 182.829 123.835 183.01 123.664H236.525C236.688 123.834 236.839 124.016 236.976 124.208Z" fill="white"/>
<path d="M238.611 127.477H181.41C181.449 127.293 181.499 127.111 181.559 126.932H238.418C238.474 127.128 238.547 127.311 238.611 127.477Z" fill="white"/>
<path d="M239.7 129.656H181.41V129.111H239.653C239.653 129.29 239.687 129.473 239.7 129.656Z" fill="white"/>
<path d="M239.7 132.38H181.41V132.925H239.7V132.38Z" fill="white"/>
<path d="M239.7 135.104H181.41V135.649H239.7V135.104Z" fill="white"/>
<path d="M239.7 138.372H181.41V138.917H239.7V138.372Z" fill="white"/>
<path d="M239.7 140.552H181.41V141.096H239.7V140.552Z" fill="white"/>
<path d="M239.7 143.275H181.41V143.82H239.7V143.275Z" fill="white"/>
<path d="M239.7 146.544H181.41V147.089H239.7V146.544Z" fill="white"/>
<path d="M239.7 149.268H181.41V149.813H239.7V149.268Z" fill="white"/>
<path d="M239.7 154.716V155.26H181.41V154.716H239.7Z" fill="white"/>
<path d="M238.611 161.253C238.611 161.436 238.375 161.615 238.358 161.798H181.547C181.49 161.619 181.445 161.437 181.41 161.253H238.611Z" fill="white"/>
<path d="M184.678 124.208H53.3878L53.8155 123.664H183.634C183.994 123.842 184.34 124.03 184.678 124.208Z" fill="white"/>
<path d="M183.589 127.477H51.7534C51.8219 127.294 51.8948 127.115 51.9719 126.932H183.07C183.254 127.103 183.427 127.285 183.589 127.477Z" fill="white"/>
<path d="M185.223 129.656H51.2086C51.2129 129.474 51.2301 129.291 51.2601 129.111H185.086C185.144 129.29 185.19 129.472 185.223 129.656Z" fill="white"/>
<path d="M185.223 132.38H51.2086V132.925H185.223V132.38Z" fill="white"/>
<path d="M185.223 135.104H51.2086V135.649H185.223V135.104Z" fill="white"/>
<path d="M185.223 138.372H51.2086V138.917H185.223V138.372Z" fill="white"/>
<path d="M185.223 140.552H51.2086V141.096H185.223V140.552Z" fill="white"/>
<path d="M185.223 143.275H51.2086V143.82H185.223V143.275Z" fill="white"/>
<path d="M185.223 146.544H51.2086V147.089H185.223V146.544Z" fill="white"/>
<path d="M185.223 149.268H51.2086V149.813H185.223V149.268Z" fill="white"/>
<path d="M184.678 154.716C184.622 154.901 184.555 155.083 184.477 155.26H51.2898C51.2599 155.082 51.23 154.903 51.2086 154.716H184.678Z" fill="white"/>
<path d="M183.044 157.984C182.852 158.176 182.65 158.358 182.439 158.529H52.0065C51.9164 158.349 51.8306 158.164 51.7534 157.984H183.044Z" fill="white"/>
<path opacity="0.2" d="M190.126 114.407C188.177 116.721 185.657 119.047 184.659 119.564C178.98 122.518 172.401 124.781 169.069 130.203C164.851 137.033 167.578 145.969 165.642 153.747C165.287 155.164 164.739 156.611 163.628 157.589C162.517 158.567 160.732 158.9 159.552 158.016C158.515 157.243 158.256 155.843 158.061 154.575C156.358 142.606 156.294 130.465 157.871 118.479C151.388 121.34 147.001 127.376 143.539 133.481C140.077 139.586 137.173 146.131 132.35 151.258C130.979 152.709 129.177 154.131 127.189 153.849C124.799 150.861 126.052 146.494 127.409 142.916C130.128 135.71 132.855 128.495 136.373 121.664C137.506 119.444 138.763 117.216 140.665 115.585C141.185 115.14 141.747 114.744 142.342 114.402L190.126 114.407Z" fill="#3F3D56"/>
<path d="M236.977 160.708C236.831 160.901 236.668 161.051 236.505 161.253H54.4301C54.2586 161.077 54.0913 160.893 53.9327 160.708H236.977Z" fill="white"/>
<path d="M93.7011 229.894H71.3809C64.225 228.124 60.758 220.515 60.758 220.515C60.758 220.515 60.1098 183.303 60.758 178.598C61.4061 173.893 72.2465 170.514 72.2465 170.514H93.7011C86.5452 171.524 81.3469 178.384 81.3469 178.384C81.3469 178.384 80.9119 219.509 81.3469 222.277C81.7819 225.044 93.7011 229.894 93.7011 229.894Z" fill="url(#paint10_linear)"/>
<path d="M93.701 229.894H86.5779C79.4634 228.124 76.0122 220.515 76.0122 220.515C76.0122 220.515 75.3627 183.303 76.0122 178.598C76.6617 173.893 87.4439 170.514 87.4439 170.514H93.701C86.5779 171.524 81.4033 178.384 81.4033 178.384C81.4033 178.384 80.9703 219.509 81.4033 222.277C81.8363 225.044 93.701 229.894 93.701 229.894Z" fill="#68E1FD"/>
<path d="M93.701 229.894H86.5779C79.4634 228.124 76.0122 220.515 76.0122 220.515C76.0122 220.515 75.3627 183.303 76.0122 178.598C76.6617 173.893 87.4439 170.514 87.4439 170.514H93.701C86.5779 171.524 81.4033 178.384 81.4033 178.384C81.4033 178.384 80.9703 219.509 81.4033 222.277C81.8363 225.044 93.701 229.894 93.701 229.894Z" fill="url(#paint11_linear)"/>
<path d="M124.187 141.096L122.029 144.884L127.04 147.089L129.111 143.483L124.187 141.096Z" fill="url(#paint12_linear)"/>
<path d="M156.552 150.902L156.35 154.716L161.055 154.427L161.253 150.902H156.552Z" fill="url(#paint13_linear)"/>
<path d="M123.069 143.799C122.963 143.572 122.815 143.369 122.632 143.202C122.417 143.055 122.171 142.963 121.915 142.933L113.516 141.201C113.213 141.124 112.901 141.089 112.589 141.098C111.784 141.151 111.124 141.757 110.595 142.381C110.292 142.676 110.098 143.069 110.044 143.494C110.075 143.761 110.159 144.018 110.292 144.25C110.424 144.482 110.602 144.683 110.814 144.84C111.404 145.402 112.024 145.929 112.672 146.42C113.917 147.315 115.212 148.135 116.55 148.875C117.451 149.395 118.351 149.916 119.274 150.391C120.791 151.172 122.365 151.828 123.948 152.465C124.052 152.531 124.178 152.553 124.297 152.524C124.417 152.496 124.521 152.419 124.586 152.312C125.731 151.087 126.634 149.645 127.244 148.067C127.397 147.676 127.681 146.819 127.244 146.496C127.091 146.384 126.658 146.402 126.466 146.357C125.762 146.184 125.1 145.869 124.516 145.43C123.932 144.992 123.438 144.439 123.064 143.804L123.069 143.799Z" fill="#3F3D56"/>
<path d="M156.696 152.815C156.498 152.683 156.278 152.589 156.046 152.539C155.796 152.526 155.546 152.569 155.315 152.666L147.441 155.356C147.142 155.439 146.857 155.562 146.591 155.722C145.942 156.147 145.674 156.997 145.525 157.749C145.41 158.138 145.436 158.554 145.598 158.926C145.749 159.127 145.94 159.295 146.159 159.419C146.379 159.542 146.621 159.619 146.872 159.644C147.633 159.819 148.405 159.946 149.182 160.027C150.652 160.154 152.129 160.193 153.604 160.142C154.61 160.142 155.613 160.116 156.615 160.052C158.263 159.95 159.898 159.717 161.525 159.466C161.643 159.47 161.758 159.429 161.845 159.349C161.933 159.27 161.985 159.159 161.992 159.041C162.369 157.477 162.443 155.856 162.209 154.264C162.149 153.869 161.967 153.036 161.453 152.989C161.27 152.968 160.917 153.198 160.735 153.253C160.458 153.338 160.173 153.398 159.885 153.431C158.784 153.567 157.668 153.351 156.696 152.815Z" fill="#3F3D56"/>
<path d="M189.036 99.0324C189.036 99.0324 187.684 111.687 176.021 113.931C168.126 115.442 158.469 114.904 153.062 114.4C151.783 114.282 150.497 114.52 149.345 115.088C148.193 115.655 147.22 116.531 146.535 117.617L129.744 144.365L124.879 142.014H124.841L123.119 141.187L137.098 108.544C137.919 106.517 139.18 104.698 140.79 103.218C142.399 101.737 144.317 100.633 146.406 99.984L162.469 95.0107L166.223 93.8481C166.223 93.8481 181.261 92.3324 189.036 99.0324Z" fill="#3F3D56"/>
<path opacity="0.24" d="M162.38 95.3354L163.432 97.5627C163.432 97.5627 144.967 102.97 142.7 105.601C139.673 109.12 124.875 142.186 124.875 142.186H124.836L123.119 141.362L137.044 108.849C137.864 106.829 139.121 105.016 140.727 103.541C142.332 102.065 144.246 100.964 146.328 100.318L162.38 95.3354Z" fill="white"/>
<path d="M169.042 96.9697C169.042 96.9697 154.18 111.524 153.699 119.298C153.217 127.072 155.295 151.447 155.295 151.447H162.506C162.506 151.447 162.149 121.855 165.088 121.647C168.026 121.44 181.347 112.82 183.486 110.358C185.624 107.896 189.036 99.1636 189.036 99.1636L169.042 96.9697Z" fill="#3F3D56"/>
<path d="M189.034 99.4775C189.034 99.4775 176.97 105.494 164.4 98.4556C163.305 97.8425 162.254 97.1583 161.253 96.4076C161.253 96.4076 166.543 87.1891 162.331 73.7979C160.528 68.071 160.489 57.1366 169.415 55.5781H169.459C178.336 54.041 177.834 56.1785 177.834 56.1785L181.85 59.9851C189.571 66.0953 190.418 75.4627 189.034 99.4775Z" fill="#9358FF"/>
<path opacity="0.24" d="M169.969 55.0221C169.575 55.8234 168.963 56.5141 168.194 57.0255C168.194 57.0255 162.556 59.3578 163.682 67.0729C164.809 74.788 166.872 89.6254 166.872 89.6254L164.596 98.604C163.433 97.9809 162.316 97.2856 161.253 96.5227C161.253 96.5227 166.872 87.1547 162.398 73.5462C160.483 67.7263 160.442 56.6145 169.923 55.0308L169.969 55.0221Z" fill="white"/>
<path d="M177.595 55.0221C177.128 55.5622 176.555 56.008 175.909 56.334C175.263 56.66 174.557 56.8598 173.831 56.922C173.105 56.9843 172.374 56.9077 171.679 56.6967C170.984 56.4858 170.338 56.1445 169.78 55.6924L169.588 55.5322C169.588 55.5322 163.046 61.8556 169.658 62.6187C173.147 63.0402 177.443 58.9595 178.686 56.6536L177.595 55.0221Z" fill="#3F3D56"/>
<path d="M179.23 48.4848C179.205 48.5704 178.015 52.2601 177.121 54.8981C176.457 56.9543 175.049 58.6792 173.181 59.7251C172.084 60.3962 170.864 60.8327 169.595 61.0077C169.378 61.0277 169.16 61.0043 168.953 60.9388C168.745 60.8734 168.553 60.7671 168.386 60.6262C168.219 60.4852 168.081 60.3123 167.98 60.1174C167.879 59.9224 167.817 59.7092 167.797 59.4899C167.765 59.1394 167.843 58.7875 168.021 58.4852C168.316 57.9593 168.637 57.3522 168.932 56.7066C169.548 55.3641 170.063 53.8719 169.979 52.6919V52.5637C169.903 51.948 170.299 51.405 170.966 50.9304C171.907 50.2677 173.387 49.7461 174.834 49.3528C176.283 48.9802 177.75 48.6904 179.23 48.4848Z" fill="url(#paint14_linear)"/>
<path d="M169.78 56.5916C169.484 56.6471 169.182 56.6671 168.88 56.6511C169.509 55.4049 170.035 54.0197 169.949 52.9242L170.948 51.289L171.694 50.0745L174.9 49.8244L178.141 49.5744C176.003 54.23 172.414 56.159 169.78 56.5916Z" fill="url(#paint15_linear)"/>
<path d="M175.61 31.7821C173.432 31.3076 171.162 31.7532 169.299 33.0208C167.436 34.2884 166.133 36.2742 165.675 38.5419C165.634 38.7629 165.596 38.9752 165.567 39.2135C164.927 42.7156 164.9 46.3093 165.488 49.8212C166.916 55.2594 174.586 53.2878 176.143 51.6369C177.7 49.9859 183.955 42.3768 182.931 39.4172C182.278 37.4066 179.989 32.809 175.61 31.7821Z" fill="url(#paint16_linear)"/>
<path d="M169.375 26.5619L170.588 27.6777C169.755 27.4314 168.875 27.3871 168.021 27.5484C167.167 27.7097 166.364 28.072 165.677 28.6055C164.051 29.54 162.854 31.0744 162.343 32.8807L165.037 32.3976C165.037 32.3976 164.055 35.3005 168.521 36.7499C172.988 38.1992 177.715 39.6912 177.715 39.6912L176.758 37.1261C176.758 37.1261 179.265 39.0158 179.474 40.1957C179.467 41.9853 179.324 43.7718 179.047 45.5398C179.047 45.5398 180.96 42.9319 181.251 43.6929C181.541 44.4539 179.876 46.8352 179.116 47.2585C178.356 47.6817 177.997 49.4388 177.903 49.5671C177.809 49.6954 181.319 48.0964 181.665 47.3098C182.011 46.5231 187.109 39.0371 185.709 36.7969L186.857 37.0149C186.311 36.3857 185.631 35.8862 184.867 35.5528C184.867 35.5528 180.098 23.83 169.375 26.5619Z" fill="#3F3D56"/>
<path d="M167.818 89.8584C167.176 89.198 166.542 88.4108 165.645 88.2533C165.33 89.0231 165.972 89.8147 166.245 90.5976C166.286 90.6846 166.308 90.7804 166.308 90.8775C166.308 90.9746 166.286 91.0704 166.245 91.1574C166.117 91.3673 165.819 91.3804 165.585 91.3629C164.451 91.2798 163.338 91.0049 162.29 90.5494C161.32 90.1121 160.389 89.5479 159.339 89.4386C159.227 89.4157 159.11 89.4311 159.007 89.4823C158.752 89.6485 158.901 90.0509 159.084 90.2958C159.474 90.8247 159.917 91.3099 160.406 91.7434C159.665 91.4057 158.875 91.1973 158.067 91.1268C157.842 91.1268 157.536 91.1749 157.54 91.4067C157.555 91.502 157.6 91.5896 157.668 91.656C158.265 92.3598 158.987 92.9414 159.794 93.3704C159.207 93.243 158.607 93.1916 158.008 93.2173C157.749 93.2173 157.404 93.3573 157.442 93.6197C157.459 93.7061 157.5 93.7854 157.561 93.8471C158.281 94.7404 159.253 95.3809 160.342 95.6797L158.642 95.719C158.534 95.7146 158.428 95.7371 158.331 95.7846C158.025 95.9858 158.293 96.48 158.59 96.6943C159.9 97.6347 161.567 97.8009 163.17 97.919C166.236 98.1464 169.463 98.2688 172.227 96.878C172.427 96.7731 172.653 96.6331 172.691 96.4057C172.7 96.2866 172.682 96.167 172.64 96.0558C172.304 94.9055 172.134 92.8193 171.118 92.1196C170.624 91.7828 170.016 91.5904 169.51 91.2448C169.004 90.8993 168.396 90.1558 167.818 89.8584Z" fill="url(#paint17_linear)"/>
<path d="M191.652 87.3768C190.644 96.8937 172.691 98.0592 172.691 98.0592L170.84 91.9446L170.514 90.869C170.514 90.869 180.131 89.7035 181.968 86.8111C183.806 83.9188 176.241 74.2218 180.813 68.8142C185.385 63.4065 186.424 65.0691 186.424 65.0691C186.424 65.0691 192.651 77.8598 191.652 87.3768Z" fill="#9358FF"/>
<path d="M144.91 72.9996C144.905 73.2989 144.882 73.5975 144.842 73.8935C144.705 75.23 144.314 77.6753 143.275 78.5649C141.814 79.8154 141.612 77.9933 141.644 77.2756C141.676 76.8816 141.737 76.4907 141.826 76.1067C142.164 74.551 143.956 73.4853 144.644 73.1329L144.91 72.9996Z" fill="url(#paint18_linear)"/>
<path d="M144.91 74.3601C144.762 75.6854 144.341 78.1101 143.221 78.9922C142.735 78.647 142.109 78.1868 141.462 77.7138C140.594 77.0746 139.669 76.4013 139.014 75.9325C138.43 75.5487 137.899 75.0933 137.433 74.5774C137.025 74.0537 136.686 73.4809 136.426 72.8729L135.08 70.0007C134.646 69.059 134.212 67.8147 134.984 67.086C135.18 66.8985 136.96 66.5576 137.077 66.3104C137.403 65.603 135.34 64.1073 135.471 63.3275C135.535 63.1151 135.674 62.9315 135.861 62.8086C136.049 62.6856 136.275 62.631 136.5 62.6542C136.934 62.6755 138.167 63.7877 138.553 64.0135C139.318 64.4397 138.675 65.0448 139.422 65.488C140.391 65.9766 141.271 66.6188 142.027 67.3885C142.869 68.3558 143.295 69.5959 143.698 70.7976C143.994 71.6797 144.389 72.6342 144.693 73.5845C144.775 73.8572 144.849 74.1087 144.91 74.3601Z" fill="url(#paint19_linear)"/>
<path d="M138.542 67.132L135.635 53.5168L134.559 48.4848L151.448 52.9572L156.35 85.5294L140.655 80.8031L138.542 67.132Z" fill="#F85278"/>
<path d="M141.874 67.2725L135.104 52.843L140.453 80.8805L156.35 85.5294L154.646 74.5422L141.874 67.2725Z" fill="url(#paint20_linear)"/>
<path d="M139.591 73.1317C140.135 72.8694 141.248 72.392 141.528 71.8716C141.595 71.7468 141.693 71.5834 141.608 71.4716C141.221 70.9555 139.627 71.6135 139.173 71.4716C139.485 70.977 142.263 69.476 140.954 69.1362C140.673 69.0631 138.932 69.9147 138.652 69.8373C138.87 69.6652 140.66 68.4352 140.967 68.1169C141.056 68.0221 141.109 67.901 141.117 67.7735C141.125 67.6459 141.088 67.5195 141.012 67.415C140.935 67.3105 140.825 67.2341 140.698 67.1983C140.571 67.1625 140.435 67.1695 140.313 67.2181C139.365 67.6387 138.392 68.0063 137.401 68.3191C137.592 68.0137 140.179 66.5987 140.282 66.2375C140.339 66.1008 140.349 65.9497 140.308 65.8074C140.272 65.7308 140.22 65.6624 140.155 65.6068C140.09 65.5512 140.013 65.5096 139.93 65.4848C139.208 65.2139 138.398 65.4848 137.677 65.7644L135.967 66.4181C135.419 66.6245 134.814 66.8912 134.631 67.4245C134.551 67.6944 134.538 67.9786 134.591 68.2546C134.8 69.9959 135.443 71.6622 136.466 73.1102C136.973 73.8242 138.576 75.5488 139.498 75.7165C140.317 75.867 138.826 73.5403 139.591 73.1317Z" fill="url(#paint21_linear)"/>
<path opacity="0.24" d="M156.836 117.256C156.836 117.256 162.423 104.287 168.88 100.597L166.678 99.6935C166.678 99.6935 155.34 111.908 154 118.193C152.661 124.479 155.348 151.447 155.348 151.447H157.208C157.208 151.447 154.135 119.902 156.836 117.256Z" fill="white"/>
<path opacity="0.24" d="M182.152 88.9015C178.464 90.417 172.183 91.7376 170.83 92.0148L170.57 92.0667L170.514 90.9279C170.514 90.9279 179.859 89.7502 181.645 86.8274C183.431 83.9047 176.08 74.1059 180.523 68.6414C180.523 68.6414 179.959 73.4737 181.42 77.046C182.881 80.6182 186.296 87.1695 182.152 88.9015Z" fill="white"/>
<defs>
<linearGradient id="paint0_linear" x1="66419.4" y1="28236.2" x2="66447.9" y2="19418.5" gradientUnits="userSpaceOnUse">
<stop stop-color="white" stop-opacity="0"/>
<stop offset="0.99" stop-color="white"/>
</linearGradient>
<linearGradient id="paint1_linear" x1="176.953" y1="88.1336" x2="139.902" y2="175.273" gradientUnits="userSpaceOnUse">
<stop offset="0.17" stop-color="#00272E"/>
<stop offset="1" stop-color="#69B9EB" stop-opacity="0"/>
</linearGradient>
<linearGradient id="paint2_linear" x1="125.131" y1="211.229" x2="126.436" y2="259.061" gradientUnits="userSpaceOnUse">
<stop stop-opacity="0"/>
<stop offset="0.91" stop-opacity="0.8"/>
<stop offset="1"/>
</linearGradient>
<linearGradient id="paint3_linear" x1="43230.1" y1="4102.97" x2="43228.3" y2="4576.22" gradientUnits="userSpaceOnUse">
<stop stop-color="white" stop-opacity="0"/>
<stop offset="0.99" stop-color="white"/>
</linearGradient>
<linearGradient id="paint4_linear" x1="39997.1" y1="7482.38" x2="24425.1" y2="8319.43" gradientUnits="userSpaceOnUse">
<stop stop-color="#9358FF"/>
<stop offset="0.91" stop-color="#9358FF"/>
<stop offset="1" stop-color="#9358FF"/>
</linearGradient>
<linearGradient id="paint5_linear" x1="37890.8" y1="31736.7" x2="39411.1" y2="11750" gradientUnits="userSpaceOnUse">
<stop stop-color="white" stop-opacity="0"/>
<stop offset="0.99" stop-color="white"/>
</linearGradient>
<linearGradient id="paint6_linear" x1="240.464" y1="145.13" x2="180.442" y2="140.242" gradientUnits="userSpaceOnUse">
<stop stop-color="#68E1FD"/>
<stop offset="1" stop-color="white"/>
</linearGradient>
<linearGradient id="paint7_linear" x1="58146.8" y1="21499" x2="7785.89" y2="21499" gradientUnits="userSpaceOnUse">
<stop stop-color="white" stop-opacity="0"/>
<stop offset="0.99" stop-color="white"/>
</linearGradient>
<linearGradient id="paint8_linear" x1="235.342" y1="165.611" x2="236.432" y2="165.611" gradientUnits="userSpaceOnUse">
<stop stop-color="#68E1FD"/>
<stop offset="1" stop-color="#69B9EB"/>
</linearGradient>
<linearGradient id="paint9_linear" x1="538.296" y1="626.805" x2="539.059" y2="626.805" gradientUnits="userSpaceOnUse">
<stop stop-color="#68E1FD"/>
<stop offset="1" stop-color="#69B9EB"/>
</linearGradient>
<linearGradient id="paint10_linear" x1="5601.77" y1="43883.9" x2="9050.8" y2="32106.2" gradientUnits="userSpaceOnUse">
<stop stop-color="white" stop-opacity="0"/>
<stop offset="0.99" stop-color="white"/>
</linearGradient>
<linearGradient id="paint11_linear" x1="3593.21" y1="37328.9" x2="4808.06" y2="282.111" gradientUnits="userSpaceOnUse">
<stop stop-color="white" stop-opacity="0"/>
<stop offset="0.99" stop-color="white"/>
</linearGradient>
<linearGradient id="paint12_linear" x1="129.892" y1="144.451" x2="119.473" y2="143.598" gradientUnits="userSpaceOnUse">
<stop stop-color="#ECC4D7"/>
<stop offset="0.42" stop-color="#EFD4D1"/>
<stop offset="1" stop-color="#F2EAC9"/>
</linearGradient>
<linearGradient id="paint13_linear" x1="3815.6" y1="-3451.12" x2="3709.64" y2="-3413.9" gradientUnits="userSpaceOnUse">
<stop stop-color="#ECC4D7"/>
<stop offset="0.42" stop-color="#EFD4D1"/>
<stop offset="1" stop-color="#F2EAC9"/>
</linearGradient>
<linearGradient id="paint14_linear" x1="4918.01" y1="-5695.96" x2="4731.18" y2="-5697.94" gradientUnits="userSpaceOnUse">
<stop stop-color="#ECC4D7"/>
<stop offset="0.42" stop-color="#EFD4D1"/>
<stop offset="1" stop-color="#F2EAC9"/>
</linearGradient>
<linearGradient id="paint15_linear" x1="3922.98" y1="-3189.49" x2="3550.84" y2="-2984.57" gradientUnits="userSpaceOnUse">
<stop stop-color="#ECC4D7"/>
<stop offset="0.42" stop-color="#EFD4D1"/>
<stop offset="1" stop-color="#F2EAC9"/>
</linearGradient>
<linearGradient id="paint16_linear" x1="7810.55" y1="-10746" x2="7144.4" y2="-10678.8" gradientUnits="userSpaceOnUse">
<stop stop-color="#ECC4D7"/>
<stop offset="0.42" stop-color="#EFD4D1"/>
<stop offset="1" stop-color="#F2EAC9"/>
</linearGradient>
<linearGradient id="paint17_linear" x1="5762.25" y1="3815.05" x2="6309.4" y2="3815.05" gradientUnits="userSpaceOnUse">
<stop stop-color="#ECC4D7"/>
<stop offset="0.42" stop-color="#EFD4D1"/>
<stop offset="1" stop-color="#F2EAC9"/>
</linearGradient>
<linearGradient id="paint18_linear" x1="141.64" y1="75.995" x2="144.91" y2="75.995" gradientUnits="userSpaceOnUse">
<stop stop-color="#183866"/>
<stop offset="1" stop-color="#1A7FC1"/>
</linearGradient>
<linearGradient id="paint19_linear" x1="3392.34" y1="5466.63" x2="3639.1" y2="5466.63" gradientUnits="userSpaceOnUse">
<stop stop-color="#ECC4D7"/>
<stop offset="0.42" stop-color="#EFD4D1"/>
<stop offset="1" stop-color="#F2EAC9"/>
</linearGradient>
<linearGradient id="paint20_linear" x1="7084.51" y1="10183.6" x2="9106.68" y2="13362" gradientUnits="userSpaceOnUse">
<stop stop-color="white" stop-opacity="0"/>
<stop offset="0.99" stop-color="white"/>
</linearGradient>
<linearGradient id="paint21_linear" x1="2363.29" y1="3460.65" x2="2476.32" y2="3460.65" gradientUnits="userSpaceOnUse">
<stop stop-color="#ECC4D7"/>
<stop offset="0.42" stop-color="#EFD4D1"/>
<stop offset="1" stop-color="#F2EAC9"/>
</linearGradient>
</defs>
</svg>
