<svg width="45" height="34" viewBox="0 0 45 34" fill="none" xmlns="http://www.w3.org/2000/svg">
<path d="M6.75313 0.000152588C6.75194 0.000152588 6.7506 0.000152588 6.74941 0.000152588C6.33188 0.000152588 5.93917 0.162915 5.64262 0.458713C5.34281 0.75778 5.17767 1.15599 5.17767 1.57992V25.2682C5.17767 26.1369 5.88714 26.8453 6.75937 26.8475C10.4365 26.8563 16.5971 27.6227 20.8471 32.0702V7.27974C20.8471 6.98528 20.7718 6.70866 20.6299 6.47975C17.1417 0.862275 10.4386 0.00877381 6.75313 0.000152588Z" fill="#E8E8E8"/>
<path d="M38.969 25.2682V1.57977C38.969 1.15584 38.8038 0.757627 38.504 0.45856C38.2075 0.162763 37.8145 0 37.3974 0C37.396 0 37.3947 0 37.3935 0C33.7082 0.00876987 27.0051 0.862271 23.5168 6.47974C23.3748 6.70865 23.2997 6.98527 23.2997 7.27973V32.0701C27.5497 27.6226 33.7103 26.8562 37.3874 26.8474C38.2595 26.8452 38.969 26.1367 38.969 25.2682Z" fill="#E8E8E8"/>
<path d="M42.5669 5.46304H41.4215V25.2682C41.4215 27.4861 39.6145 29.2946 37.3932 29.3001C34.2742 29.3076 29.1315 29.9175 25.4893 33.3646C31.7885 31.8223 38.4289 32.8249 42.2133 33.6873C42.6858 33.7949 43.1741 33.6837 43.5527 33.382C43.93 33.081 44.1464 32.6311 44.1464 32.1481V7.04251C44.1466 6.17162 43.4378 5.46304 42.5669 5.46304Z" fill="#E8E8E8"/>
<path d="M2.7249 25.2682V5.46304H1.57947C0.708724 5.46304 0 6.17162 0 7.04251V32.1477C0 32.6308 0.216423 33.0805 0.593676 33.3815C0.971969 33.6831 1.45981 33.7948 1.93309 33.6869C5.71751 32.8243 12.3581 31.8218 18.6569 33.3642C15.0149 29.9172 9.8722 29.3074 6.75325 29.3C4.53209 29.2946 2.7249 27.4861 2.7249 25.2682Z" fill="#E8E8E8"/>
</svg>
